<svg width="109" height="92" viewBox="0 0 109 92" fill="none" xmlns="http://www.w3.org/2000/svg">
<g filter="url(#filter0_dd_872_5592)">
<path fill-rule="evenodd" clip-rule="evenodd" d="M50.393 55.8626C50.689 56.7651 51.0654 57.4992 51.5221 58.0649C52.1711 58.8377 52.9971 59.2241 54 59.2241C55.0324 59.2241 55.8584 58.8377 56.4779 58.0649C57.1268 57.2612 57.5988 56.1175 57.8938 54.6337C58.2183 53.119 58.3805 51.2952 58.3805 49.1623C58.3805 48.265 58.3526 47.4262 58.2968 46.6459L50.393 55.8626ZM57.5307 42.2983C57.2567 41.4796 56.9058 40.8156 56.4779 40.306C55.8584 39.5023 55.0324 39.1005 54 39.1005C52.9971 39.1005 52.1711 39.5023 51.5221 40.306C50.8732 41.0788 50.3864 42.2071 50.0619 43.6909C49.767 45.1747 49.6195 46.9985 49.6195 49.1623C49.6195 49.969 49.6406 50.7315 49.6828 51.4498L57.5307 42.2983ZM48.7345 62.2844C50.2389 63.4281 51.9941 64 54 64C56.0059 64 57.7611 63.4281 59.2655 62.2844C60.7699 61.1407 61.9351 59.4714 62.7611 57.2767C63.587 55.051 64 52.3462 64 49.1623C64 45.9784 63.587 43.2581 62.7611 41.0015C61.9351 38.745 60.7699 37.0139 59.2655 35.8083C57.7611 34.6028 56.0059 34 54 34C51.9941 34 50.2389 34.6028 48.7345 35.8083C47.2301 37.0139 46.0649 38.745 45.2389 41.0015C44.413 43.2581 44 45.9784 44 49.1623C44 52.3462 44.413 55.051 45.2389 57.2767C46.0649 59.4714 47.2301 61.1407 48.7345 62.2844ZM77.393 55.8626C77.689 56.7651 78.0654 57.4992 78.5221 58.0649C79.1711 58.8377 79.9971 59.2241 81 59.2241C82.0325 59.2241 82.8584 58.8377 83.4779 58.0649C84.1269 57.2612 84.5988 56.1175 84.8938 54.6337C85.2183 53.119 85.3805 51.2952 85.3805 49.1623C85.3805 48.265 85.3526 47.4262 85.2968 46.6459L77.393 55.8626ZM84.5307 42.2983C84.2567 41.4796 83.9058 40.8156 83.4779 40.306C82.8584 39.5023 82.0325 39.1005 81 39.1005C79.9971 39.1005 79.1711 39.5023 78.5221 40.306C77.8732 41.0788 77.3864 42.2071 77.0619 43.6909C76.767 45.1747 76.6195 46.9985 76.6195 49.1623C76.6195 49.969 76.6406 50.7315 76.6828 51.4498L84.5307 42.2983ZM75.7345 62.2844C77.2389 63.4281 78.9941 64 81 64C83.0059 64 84.7611 63.4281 86.2655 62.2844C87.7699 61.1407 88.9351 59.4714 89.7611 57.2767C90.587 55.051 91 52.3462 91 49.1623C91 45.9784 90.587 43.2581 89.7611 41.0015C88.9351 38.745 87.7699 37.0139 86.2655 35.8083C84.7611 34.6028 83.0059 34 81 34C78.9941 34 77.2389 34.6028 75.7345 35.8083C74.2301 37.0139 73.0649 38.745 72.2389 41.0015C71.413 43.2581 71 45.9784 71 49.1623C71 52.3462 71.413 55.051 72.2389 57.2767C73.0649 59.4714 74.2301 61.1407 75.7345 62.2844Z" fill="url(#paint0_linear_872_5592)"/>
</g>
<defs>
<filter id="filter0_dd_872_5592" x="0" y="0" width="109" height="92" filterUnits="userSpaceOnUse" color-interpolation-filters="sRGB">
<feFlood flood-opacity="0" result="BackgroundImageFix"/>
<feColorMatrix in="SourceAlpha" type="matrix" values="0 0 0 0 0 0 0 0 0 0 0 0 0 0 0 0 0 0 127 0" result="hardAlpha"/>
<feOffset dx="-13" dy="-3"/>
<feGaussianBlur stdDeviation="15.5"/>
<feComposite in2="hardAlpha" operator="out"/>
<feColorMatrix type="matrix" values="0 0 0 0 0 0 0 0 0 0.997152 0 0 0 0 0.45869 0 0 0 0.7 0"/>
<feBlend mode="normal" in2="BackgroundImageFix" result="effect1_dropShadow_872_5592"/>
<feColorMatrix in="SourceAlpha" type="matrix" values="0 0 0 0 0 0 0 0 0 0 0 0 0 0 0 0 0 0 127 0" result="hardAlpha"/>
<feOffset dx="2" dy="3"/>
<feGaussianBlur stdDeviation="3.5"/>
<feComposite in2="hardAlpha" operator="out"/>
<feColorMatrix type="matrix" values="0 0 0 0 0.00107422 0 0 0 0 0.820193 0 0 0 0 1 0 0 0 0.54 0"/>
<feBlend mode="normal" in2="effect1_dropShadow_872_5592" result="effect2_dropShadow_872_5592"/>
<feBlend mode="normal" in="SourceGraphic" in2="effect2_dropShadow_872_5592" result="shape"/>
</filter>
<linearGradient id="paint0_linear_872_5592" x1="91" y1="49" x2="44" y2="49" gradientUnits="userSpaceOnUse">
<stop stop-color="#00FE75"/>
<stop offset="1" stop-color="#19FDEF"/>
</linearGradient>
</defs>
</svg>
